<svg xmlns="http://www.w3.org/2000/svg" version="1.1" xmlns:xlink="http://www.w3.org/1999/xlink" xmlns:svgjs="http://svgjs.dev/svgjs" width="1500" height="1500" viewBox="0 0 1500 1500"><rect width="1500" height="1500" fill="#c9efc7"></rect><g transform="matrix(0.6666666666666666,0,0,0.6666666666666666,249.39393939393938,438.5856950067477)"><svg viewBox="0 0 396 247" data-background-color="#c9efc7" preserveAspectRatio="xMidYMid meet" height="935" width="1500" xmlns="http://www.w3.org/2000/svg" xmlns:xlink="http://www.w3.org/1999/xlink"><g id="tight-bounds" transform="matrix(1,0,0,1,0.2400000000000091,-0.09999999999999432)"><svg viewBox="0 0 395.52 247.2" height="247.2" width="395.52"><g><svg></svg></g><g><svg viewBox="0 0 395.52 247.2" height="247.2" width="395.52"><g><path d="M55.039 247.2l26.403-45.732 2.424 0-25.125 43.518h278.038l-25.125-43.518 2.424 0 26.403 45.732zM197.76 0l26.403 45.732-2.423 0-23.98-41.535-23.98 41.535-2.423 0z" fill="#454545" fill-rule="nonzero" stroke="none" stroke-width="1" stroke-linecap="butt" stroke-linejoin="miter" stroke-miterlimit="10" stroke-dasharray="" stroke-dashoffset="0" font-family="none" font-weight="none" font-size="none" text-anchor="none" style="mix-blend-mode: normal" data-fill-palette-color="tertiary"></path></g><g transform="matrix(1,0,0,1,98.18023815306117,67.97999999999999)"><svg viewBox="0 0 199.15952369387765 111.24" height="111.24" width="199.15952369387765"><g><svg viewBox="0 0 395.52 220.9165998389688" height="111.24" width="199.15952369387765"><g transform="matrix(1,0,0,1,0,150.32304505463563)"><svg viewBox="0 0 395.52 70.59355478433316" height="70.59355478433316" width="395.52"><g id="textblocktransform"><svg viewBox="0 0 395.52 70.59355478433316" height="70.59355478433316" width="395.52" id="textblock"><g><svg viewBox="0 0 395.52 70.59355478433316" height="70.59355478433316" width="395.52"><g transform="matrix(1,0,0,1,0,0)"><svg width="395.52" viewBox="0.35 -35.25 201.68 36" height="70.59355478433316" data-palette-color="#454545"><path d="M11.75-35.25Q14.75-35.25 17.05-34.2 19.35-33.15 21.3-31.05L21.3-31.05 18.35-27.65Q16.8-29.05 15.33-29.75 13.85-30.45 12.2-30.45L12.2-30.45Q10.3-30.45 9.2-29.28 8.1-28.1 8.1-26.2L8.1-26.2Q8.1-24.3 9.25-23.1 10.4-21.9 13.75-20.6L13.75-20.6Q18.05-18.85 20.08-16.5 22.1-14.15 22.1-9.85L22.1-9.85Q22.1-6.9 20.75-4.48 19.4-2.05 16.88-0.65 14.35 0.75 11 0.75L11 0.75Q7.55 0.75 5-0.48 2.45-1.7 0.35-3.95L0.35-3.95 3.55-7.45Q5.35-5.85 7-5 8.65-4.15 10.6-4.15L10.6-4.15Q12.9-4.15 14.18-5.58 15.45-7 15.45-9.45L15.45-9.45Q15.45-11.6 14.33-12.98 13.2-14.35 10.15-15.5L10.15-15.5Q5.55-17.35 3.53-19.75 1.5-22.15 1.5-25.75L1.5-25.75Q1.5-28.5 2.83-30.65 4.15-32.8 6.5-34.02 8.85-35.25 11.75-35.25L11.75-35.25ZM23.65-34.55L45.2-34.55 44.5-29.55 37.4-29.55 37.4 0 31.05 0 31.05-29.55 23.65-29.55 23.65-34.55ZM69.59-34.55L69.59-9.7Q69.59-5.15 66.77-2.23 63.95 0.7 58.7 0.7L58.7 0.7Q53.35 0.7 50.55-2.18 47.75-5.05 47.75-9.7L47.75-9.7 47.75-34.55 54.1-34.55 54.1-10Q54.1-7.1 55.2-5.68 56.3-4.25 58.7-4.25L58.7-4.25Q61.05-4.25 62.15-5.68 63.25-7.1 63.25-10L63.25-10 63.25-34.55 69.59-34.55ZM82.79-34.55Q87.14-34.55 90.32-33.23 93.49-31.9 95.47-28.13 97.44-24.35 97.44-17.45L97.44-17.45Q97.44-7.7 93.57-3.85 89.69 0 83.44 0L83.44 0 75.09 0 75.09-34.55 82.79-34.55ZM83.74-29.8L81.44-29.8 81.44-4.75 83.79-4.75Q86.04-4.75 87.57-5.8 89.09-6.85 89.97-9.65 90.84-12.45 90.84-17.45L90.84-17.45Q90.84-22.55 89.92-25.25 88.99-27.95 87.47-28.88 85.94-29.8 83.74-29.8L83.74-29.8ZM117.04-34.55L123.54-34.55 114.44-13.15 114.44 0 108.04 0 108.04-13.1 98.94-34.55 105.69-34.55 111.34-18.3 117.04-34.55ZM147.99 0L141.59 0 141.59-15.5 132.64-15.5 132.64 0 126.29 0 126.29-34.55 132.64-34.55 132.64-20.6 141.59-20.6 141.59-34.55 147.99-34.55 147.99 0ZM175.28-34.55L175.28-9.7Q175.28-5.15 172.46-2.23 169.63 0.7 164.38 0.7L164.38 0.7Q159.03 0.7 156.24-2.18 153.44-5.05 153.44-9.7L153.44-9.7 153.44-34.55 159.78-34.55 159.78-10Q159.78-7.1 160.88-5.68 161.99-4.25 164.38-4.25L164.38-4.25Q166.74-4.25 167.84-5.68 168.94-7.1 168.94-10L168.94-10 168.94-34.55 175.28-34.55ZM194.83-18.3Q198.18-17.55 200.11-15.63 202.03-13.7 202.03-9.9L202.03-9.9Q202.03-4.9 198.66-2.45 195.28 0 189.48 0L189.48 0 180.78 0 180.78-34.55 188.33-34.55Q194.28-34.55 197.53-32.3 200.78-30.05 200.78-25.75L200.78-25.75Q200.78-22.85 199.16-20.95 197.53-19.05 194.83-18.3L194.83-18.3ZM188.98-29.85L187.13-29.85 187.13-20.3 189.28-20.3Q194.33-20.3 194.33-25.2L194.33-25.2Q194.33-27.65 193.06-28.75 191.78-29.85 188.98-29.85L188.98-29.85ZM189.53-4.8Q192.43-4.8 193.93-6.03 195.43-7.25 195.43-10.15L195.43-10.15Q195.43-13.05 194.03-14.43 192.63-15.8 189.68-15.8L189.68-15.8 187.13-15.8 187.13-4.8 189.53-4.8Z" opacity="1" transform="matrix(1,0,0,1,0,0)" fill="#454545" class="wordmark-text-0" data-fill-palette-color="primary" id="text-0"></path></svg></g></svg></g></svg></g></svg></g><g transform="matrix(1,0,0,1,126.61668604517891,0)"><svg viewBox="0 0 142.28662790964216 133.65760101536938" height="133.65760101536938" width="142.28662790964216"><g><svg xmlns="http://www.w3.org/2000/svg" xmlns:xlink="http://www.w3.org/1999/xlink" version="1.1" x="0" y="0" viewBox="0.293 4.557 99.41399999999999 93.38499999999998" enable-background="new 0 0 100 100" xml:space="preserve" height="133.65760101536938" width="142.28662790964216" class="icon-icon-0" data-fill-palette-color="accent" id="icon-0"><g fill="#454545" data-fill-palette-color="accent"><path d="M29.168 81.498V46.742L51.332 34.961A2.5 2.5 0 1 0 48.984 30.546L25.868 42.833C25.004 43.293 24.527 43.625 24.262 44.562 24.09 45.109 24.168 45.938 24.168 46.423V81.497C21.189 82.535 19.043 85.364 19.043 88.692V97.942H34.293V88.692C34.293 85.365 32.146 82.536 29.168 81.498" fill="#454545" data-fill-palette-color="accent"></path><path d="M20.168 48.79L17.5 47.332V53.865C17.5 56.933 18.455 59.851 20.168 62.499z" fill="#454545" data-fill-palette-color="accent"></path><path d="M49.999 65.094L47.461 63.706 33.168 55.302V72.471C38.078 74.463 43.838 75.611 50 75.611 67.949 75.611 82.5 65.877 82.5 53.866V47.332L52.537 63.706z" fill="#454545" data-fill-palette-color="accent"></path><path d="M50 4.557L0.293 32.002 0.502 32.117 20.503 43.048C21.308 40.58 23.105 39.606 23.99 39.135L47.106 26.848A6.494 6.494 0 0 1 55.898 29.539C57.578 32.705 56.371 36.647 53.209 38.328L33.167 48.98 49.999 59.168 99.558 32.084 99.707 32.002z" fill="#454545" data-fill-palette-color="accent"></path><path d="M50.066 30.098C50.126 30.096 50.186 30.098 50.246 30.099 50.215 30.098 50.185 30.087 50.154 30.087 50.125 30.087 50.096 30.097 50.066 30.098" fill="#454545" data-fill-palette-color="accent"></path></g></svg></g></svg></g><g></g></svg></g></svg></g></svg></g><defs></defs></svg><rect width="395.52" height="247.2" fill="none" stroke="none" visibility="hidden"></rect></g></svg></g></svg>